M48
; DRILL file {KiCad 9.0.1} date 2025-06-07T22:41:12-0300
; FORMAT={-:-/ absolute / metric / decimal}
; #@! TF.CreationDate,2025-06-07T22:41:12-03:00
; #@! TF.GenerationSoftware,Kicad,Pcbnew,9.0.1
; #@! TF.FileFunction,Plated,1,2,PTH
FMAT,2
METRIC
; #@! TA.AperFunction,Plated,PTH,ComponentDrill
T1C0.200
; #@! TA.AperFunction,Plated,PTH,ViaDrill
T2C0.300
; #@! TA.AperFunction,Plated,PTH,ViaDrill
T3C0.500
; #@! TA.AperFunction,Plated,PTH,ViaDrill
T4C0.700
; #@! TA.AperFunction,Plated,PTH,ComponentDrill
T5C1.000
; #@! TA.AperFunction,Plated,PTH,ComponentDrill
T6C1.100
; #@! TA.AperFunction,Plated,PTH,ComponentDrill
T7C1.300
; #@! TA.AperFunction,Plated,PTH,ComponentDrill
T8C1.400
%
G90
G05
T1
X72.32Y-68.57
X72.32Y-69.97
X73.02Y-67.87
X73.02Y-69.27
X73.02Y-70.67
X73.695Y-68.57
X73.695Y-69.97
X74.42Y-67.87
X74.42Y-69.27
X74.42Y-70.67
X75.12Y-68.57
X75.12Y-69.97
T2
X87.0Y-143.5
T3
X84.709Y-118.999
X107.442Y-115.824
X109.474Y-141.732
T4
X34.22Y-66.4
X36.2Y-124.2
X36.62Y-74.0
X37.77Y-66.45
X38.12Y-114.2
X38.47Y-105.2
X39.52Y-95.0
X41.17Y-85.6
X42.0Y-140.5
X54.4Y-114.4
X57.32Y-110.7
X58.07Y-92.45
X61.32Y-100.8
X61.976Y-156.21
X63.2Y-98.8
X65.8Y-97.0
X68.27Y-113.3
X68.72Y-98.3
X68.97Y-84.3
X74.47Y-94.95
X75.8Y-100.5
X76.4Y-105.6
X76.42Y-97.3
X84.82Y-83.0
X88.92Y-67.4
X90.12Y-88.6
X91.42Y-66.25
X94.22Y-67.3
X98.77Y-82.0
X107.0Y-62.4
X110.47Y-72.4
X111.82Y-66.7
X112.32Y-86.7
X113.6Y-92.8
T6
X46.357Y-138.012
X46.357Y-140.552
X46.357Y-143.093
X46.357Y-145.632
X48.508Y-94.51
X48.508Y-97.05
X48.508Y-113.21
X48.508Y-115.75
X48.52Y-85.16
X48.52Y-87.7
X48.557Y-103.86
X48.557Y-106.4
X50.92Y-70.83
X50.92Y-73.37
X50.92Y-75.91
X50.92Y-78.45
X58.32Y-73.1
X58.32Y-75.64
X58.32Y-78.18
X58.78Y-103.91
X58.78Y-106.45
X60.25Y-116.25
X61.32Y-103.91
X61.32Y-106.45
X62.79Y-116.25
X63.86Y-103.91
X63.86Y-106.45
X76.0Y-90.15
X78.54Y-90.15
X81.08Y-90.15
X83.62Y-90.15
X94.02Y-78.77
X94.02Y-81.31
X94.02Y-83.85
X98.42Y-69.8
X100.96Y-69.8
X103.5Y-69.8
X105.57Y-78.77
X105.57Y-81.31
X105.57Y-83.85
X106.04Y-69.8
X115.37Y-70.0
X115.37Y-72.54
X115.37Y-75.08
X115.37Y-77.62
X115.37Y-80.16
X115.37Y-82.7
T7
X52.932Y-125.95
X52.932Y-148.55
X94.0Y-111.12
X94.0Y-113.66
X94.0Y-116.2
X95.432Y-133.35
X95.432Y-141.15
X114.0Y-111.12
X114.0Y-113.66
X114.0Y-116.2
T8
X73.406Y-148.59
X81.026Y-148.59
X90.424Y-148.59
X98.044Y-148.59
X107.442Y-148.59
X115.062Y-148.59
T5
G00X36.4Y-146.0
M15
G01X38.4Y-146.0
M16
G05
G00X36.4Y-152.0
M15
G01X38.4Y-152.0
M16
G05
G00X42.1Y-150.0
M15
G01X42.1Y-148.0
M16
G05
M30
